REM DIRINDEX 1\2,1\3\5,1\3\6,1\4\7,1\4\8
REM DIRNAME cjc139,folder01,folder02,folder03,folder04,folder05,folder06,folder07
TITLE ""
FILE "EG_E3_13.mp3" MP3
  TRACK 01 AUDIO
    TITLE "0:"
    INDEX 01 00:00:00
  TRACK 02 AUDIO
    TITLE "5:cjc139_1801"
    INDEX 01 00:00:17
  TRACK 03 AUDIO
    TITLE "6:cjc139_1802"
    INDEX 01 00:03:21
  TRACK 04 AUDIO
    TITLE "5:cjc139_1803"
    INDEX 01 00:06:08
  TRACK 05 AUDIO
    TITLE "6:cjc139_1804"
    INDEX 01 00:09:49
  TRACK 06 AUDIO
    TITLE "5:cjc139_1805"
    INDEX 01 00:12:36
  TRACK 07 AUDIO
    TITLE "6:cjc139_1806"
    INDEX 01 00:16:48
  TRACK 08 AUDIO
    TITLE "5:cjc139_1807"
    INDEX 01 00:19:32
  TRACK 09 AUDIO
    TITLE "6:cjc139_1808"
    INDEX 01 00:23:01
  TRACK 10 AUDIO
    TITLE "5:cjc139_1809"
    INDEX 01 00:25:62
  TRACK 11 AUDIO
    TITLE "6:cjc139_1810"
    INDEX 01 00:29:54
  TRACK 12 AUDIO
    TITLE "5:cjc139_1811"
    INDEX 01 00:32:37
  TRACK 13 AUDIO
    TITLE "6:cjc139_1812"
    INDEX 01 00:36:46
  TRACK 14 AUDIO
    TITLE "5:cjc139_1813"
    INDEX 01 00:39:33
  TRACK 15 AUDIO
    TITLE "6:cjc139_1814"
    INDEX 01 00:42:27
  TRACK 16 AUDIO
    TITLE "5:cjc139_1815"
    INDEX 01 00:45:14
  TRACK 17 AUDIO
    TITLE "6:cjc139_1816"
    INDEX 01 00:48:44
  TRACK 18 AUDIO
    TITLE "5:cjc139_1817"
    INDEX 01 00:51:28
  TRACK 19 AUDIO
    TITLE "6:cjc139_1818"
    INDEX 01 00:55:24
  TRACK 20 AUDIO
    TITLE "5:cjc139_1819"
    INDEX 01 00:58:07
  TRACK 21 AUDIO
    TITLE "6:cjc139_1820"
    INDEX 01 01:01:46
  TRACK 22 AUDIO
    TITLE "5:cjc139_1821"
    INDEX 01 01:04:31
  TRACK 23 AUDIO
    TITLE "6:cjc139_1822"
    INDEX 01 01:07:57
  TRACK 24 AUDIO
    TITLE "5:cjc139_1823"
    INDEX 01 01:10:43
  TRACK 25 AUDIO
    TITLE "6:cjc139_1824"
    INDEX 01 01:14:45
  TRACK 26 AUDIO
    TITLE "5:cjc139_1825"
    INDEX 01 01:17:30
  TRACK 27 AUDIO
    TITLE "6:cjc139_1826"
    INDEX 01 01:21:45
  TRACK 28 AUDIO
    TITLE "5:cjc139_1827"
    INDEX 01 01:24:30
  TRACK 29 AUDIO
    TITLE "6:cjc139_1828"
    INDEX 01 01:27:34
  TRACK 30 AUDIO
    TITLE "5:cjc139_1829"
    INDEX 01 01:30:20
  TRACK 31 AUDIO
    TITLE "6:cjc139_1830"
    INDEX 01 01:33:11
  TRACK 32 AUDIO
    TITLE "5:cjc139_1831"
    INDEX 01 01:35:71
  TRACK 33 AUDIO
    TITLE "6:cjc139_1832"
    INDEX 01 01:40:46
  TRACK 34 AUDIO
    TITLE "5:cjc139_1833"
    INDEX 01 01:43:31
  TRACK 35 AUDIO
    TITLE "6:cjc139_1834"
    INDEX 01 01:46:53
  TRACK 36 AUDIO
    TITLE "5:cjc139_1835"
    INDEX 01 01:49:37
  TRACK 37 AUDIO
    TITLE "6:cjc139_1836"
    INDEX 01 01:51:42
  TRACK 38 AUDIO
    TITLE "5:cjc139_1837"
    INDEX 01 01:54:27
  TRACK 39 AUDIO
    TITLE "6:cjc139_1838"
    INDEX 01 01:56:55
  TRACK 40 AUDIO
    TITLE "5:cjc139_1839"
    INDEX 01 01:59:40
  TRACK 41 AUDIO
    TITLE "6:cjc139_1840"
    INDEX 01 02:02:20
  TRACK 42 AUDIO
    TITLE "5:cjc139_1841"
    INDEX 01 02:05:05
  TRACK 43 AUDIO
    TITLE "6:cjc139_1842"
    INDEX 01 02:08:27
  TRACK 44 AUDIO
    TITLE "5:cjc139_1843"
    INDEX 01 02:11:10
  TRACK 45 AUDIO
    TITLE "6:cjc139_1844"
    INDEX 01 02:15:02
  TRACK 46 AUDIO
    TITLE "5:cjc139_1845"
    INDEX 01 02:17:59
  TRACK 47 AUDIO
    TITLE "6:cjc139_1846"
    INDEX 01 02:21:00
  TRACK 48 AUDIO
    TITLE "5:cjc139_1847"
    INDEX 01 02:23:60
  TRACK 49 AUDIO
    TITLE "6:cjc139_1848"
    INDEX 01 02:28:16
  TRACK 50 AUDIO
    TITLE "5:cjc139_1849"
    INDEX 01 02:31:01
  TRACK 51 AUDIO
    TITLE "6:cjc139_1850"
    INDEX 01 02:34:30
  TRACK 52 AUDIO
    TITLE "5:cjc139_1851"
    INDEX 01 02:37:15
  TRACK 53 AUDIO
    TITLE "6:cjc139_1852"
    INDEX 01 02:41:07
  TRACK 54 AUDIO
    TITLE "5:cjc139_1853"
    INDEX 01 02:43:64
  TRACK 55 AUDIO
    TITLE "6:cjc139_1854"
    INDEX 01 02:47:62
  TRACK 56 AUDIO
    TITLE "5:cjc139_1855"
    INDEX 01 02:50:47
  TRACK 57 AUDIO
    TITLE "6:cjc139_1856"
    INDEX 01 02:54:49
  TRACK 58 AUDIO
    TITLE "5:cjc139_1857"
    INDEX 01 02:57:33
  TRACK 59 AUDIO
    TITLE "6:cjc139_1858"
    INDEX 01 03:01:39
  TRACK 60 AUDIO
    TITLE "5:cjc139_1859"
    INDEX 01 03:04:22
  TRACK 61 AUDIO
    TITLE "6:cjc139_1860"
    INDEX 01 03:08:35
  TRACK 62 AUDIO
    TITLE "5:cjc139_1861"
    INDEX 01 03:11:20
  TRACK 63 AUDIO
    TITLE "6:cjc139_1862"
    INDEX 01 03:12:23
  TRACK 64 AUDIO
    TITLE "5:cjc139_1863"
    INDEX 01 03:15:08
  TRACK 65 AUDIO
    TITLE "6:cjc139_1864"
    INDEX 01 03:17:14
  TRACK 66 AUDIO
    TITLE "5:cjc139_1865"
    INDEX 01 03:19:72
  TRACK 67 AUDIO
    TITLE "6:cjc139_1866"
    INDEX 01 03:22:00
  TRACK 68 AUDIO
    TITLE "5:cjc139_1867"
    INDEX 01 03:24:61
  TRACK 69 AUDIO
    TITLE "6:cjc139_1868"
    INDEX 01 03:28:63
  TRACK 70 AUDIO
    TITLE "5:cjc139_1869"
    INDEX 01 03:31:50
  TRACK 71 AUDIO
    TITLE "6:cjc139_1870"
    INDEX 01 03:35:20
  TRACK 72 AUDIO
    TITLE "5:cjc139_1871"
    INDEX 01 03:38:05
  TRACK 73 AUDIO
    TITLE "6:cjc139_1872"
    INDEX 01 03:41:58
  TRACK 74 AUDIO
    TITLE "5:cjc139_1873"
    INDEX 01 03:44:43
  TRACK 75 AUDIO
    TITLE "6:cjc139_1874"
    INDEX 01 03:48:05
  TRACK 76 AUDIO
    TITLE "5:cjc139_1875"
    INDEX 01 03:50:61
  TRACK 77 AUDIO
    TITLE "6:cjc139_1876"
    INDEX 01 03:53:08
  TRACK 78 AUDIO
    TITLE "5:cjc139_1877"
    INDEX 01 03:55:64
  TRACK 79 AUDIO
    TITLE "6:cjc139_1878"
    INDEX 01 03:58:02
  TRACK 80 AUDIO
    TITLE "5:cjc139_1879"
    INDEX 01 04:00:63
  TRACK 81 AUDIO
    TITLE "6:cjc139_1880"
    INDEX 01 04:03:01
  TRACK 82 AUDIO
    TITLE "0:"
    INDEX 01 04:05:68
